<?xml version="1.0" encoding="UTF-8" standalone="no"?>
<svg
   width="142"
   height="80"
   viewBox="0 0 142 80"
   fill="none"
   version="1.1"
   id="svg5"
   sodipodi:docname="abi_logo.svg"
   inkscape:version="1.4 (e7c3feb1, 2024-10-09)"
   xmlns:inkscape="http://www.inkscape.org/namespaces/inkscape"
   xmlns:sodipodi="http://sodipodi.sourceforge.net/DTD/sodipodi-0.dtd"
   xmlns="http://www.w3.org/2000/svg"
   xmlns:svg="http://www.w3.org/2000/svg">
  <sodipodi:namedview
     id="namedview5"
     pagecolor="#ffffff"
     bordercolor="#000000"
     borderopacity="0.25"
     inkscape:showpageshadow="2"
     inkscape:pageopacity="0.0"
     inkscape:pagecheckerboard="0"
     inkscape:deskcolor="#d1d1d1"
     inkscape:zoom="7.4366197"
     inkscape:cx="70.932765"
     inkscape:cy="39.9375"
     inkscape:window-width="2512"
     inkscape:window-height="1387"
     inkscape:window-x="55"
     inkscape:window-y="25"
     inkscape:window-maximized="1"
     inkscape:current-layer="svg5" />
  <defs
     id="defs5">
    <clipPath
       id="clip0">
      <rect
         width="141.344"
         height="80"
         fill="white"
         id="rect5" />
    </clipPath>
  </defs>
  <rect
     style="fill:#ffffff;stroke-width:0.823937;stroke-dashoffset:0.188598"
     id="rect6"
     width="142"
     height="80"
     x="0"
     y="0" />
  <g
     clip-path="url(#clip0)"
     id="g5">
    <path
       d="M0.0126953 0C0.0126953 0.390932 0.0126953 0.781864 0.0126953 1.1728C0.0126953 44.7072 31.6525 80 70.6816 80C109.711 80 141.338 44.7072 141.338 1.1728C141.338 0.781864 141.338 0.390932 141.338 0H0.0126953Z"
       fill="#FFA100"
       id="path1" />
    <path
       d="M53.0192 26.8654C50.5832 25.1401 47.6729 24.211 44.6879 24.2058C40.8313 24.2058 37.1326 25.7378 34.4056 28.4649C31.6785 31.1919 30.1465 34.8906 30.1465 38.7472C30.1533 42.5927 31.683 46.279 34.401 48.9994C37.119 51.7198 40.8039 53.2528 44.6494 53.2629C47.6996 53.2622 50.6716 52.2977 53.141 50.5072L54.5317 52.7374H59.1844V38.7472C59.1844 38.6318 59.1844 38.5229 59.1844 38.4139V24.4237H54.5317L53.0192 26.8654ZM44.6879 45.8288C42.8146 45.8289 41.0176 45.0874 39.6894 43.7664C38.3612 42.4454 37.61 40.6524 37.5998 38.7792C37.5913 36.9005 38.329 35.0952 39.6509 33.7601C40.9728 32.425 42.7707 31.6693 44.6494 31.6591C46.5293 31.6591 48.3321 32.4059 49.6614 33.7352C50.9907 35.0645 51.7375 36.8673 51.7375 38.7472C51.729 40.6143 50.9836 42.4025 49.6634 43.7227C48.3431 45.0429 46.5549 45.7884 44.6879 45.7968"
       fill="#651C32"
       id="path2" />
    <path
       d="M79.6153 24.2057C76.9198 24.2076 74.2785 24.9623 71.9889 26.3847V13.2725H65.0803V38.7471V52.7566H69.7331L71.1237 50.5263C73.595 52.3108 76.5671 53.2686 79.6153 53.2629C83.4669 53.2629 87.161 51.7341 89.8863 49.0125C92.6116 46.2908 94.1452 42.5987 94.1503 38.7471C94.1511 36.8378 93.7758 34.9471 93.0457 33.1828C92.3156 31.4186 91.2451 29.8156 89.8953 28.4652C88.5456 27.1148 86.9429 26.0436 85.1791 25.3128C83.4152 24.5819 81.5246 24.2057 79.6153 24.2057V24.2057ZM79.6153 45.8287C77.7421 45.8288 75.945 45.0873 74.6168 43.7663C73.2887 42.4454 72.5374 40.6523 72.5273 38.7792C72.523 37.8456 72.7033 36.9205 73.0576 36.0568C73.4119 35.1932 73.9333 34.408 74.5919 33.7464C75.2505 33.0848 76.0333 32.5599 76.8954 32.2017C77.7574 31.8435 78.6818 31.6591 79.6153 31.6591C81.4952 31.6591 83.298 32.4058 84.6273 33.7351C85.9566 35.0644 86.7033 36.8672 86.7033 38.7471C86.6932 40.6203 85.9419 42.4133 84.6137 43.7343C83.2856 45.0552 81.4885 45.7967 79.6153 45.7967"
       fill="#651C32"
       id="path3" />
    <path
       d="M102.264 21.8986C103.434 21.9244 104.568 21.4848 105.415 20.6762C106.262 19.8677 106.753 18.7562 106.782 17.5855C106.753 16.4205 106.266 15.3139 105.426 14.5063C104.586 13.6986 103.461 13.2552 102.296 13.2725C101.124 13.2449 99.9892 13.6838 99.1408 14.4925C98.2924 15.3013 97.7998 16.4138 97.7712 17.5855C97.7998 18.7516 98.288 19.8592 99.1294 20.6671C99.9709 21.4749 101.097 21.9175 102.264 21.8986"
       fill="#651C32"
       id="path4" />
    <path
       d="M106 24.4236H98.521V52.7052H106V24.4236Z"
       fill="#651C32"
       id="path5" />
  </g>
</svg>
