<?xml version="1.0" encoding="UTF-8" standalone="no"?>
<svg
   width="142"
   height="80"
   viewBox="0 0 142 80"
   fill="none"
   version="1.1"
   id="svg5"
   sodipodi:docname="kdv_logo.svg"
   inkscape:version="1.4 (e7c3feb1, 2024-10-09)"
   xml:space="preserve"
   inkscape:export-filename="kdv_logo.png"
   inkscape:export-xdpi="96"
   inkscape:export-ydpi="96"
   xmlns:inkscape="http://www.inkscape.org/namespaces/inkscape"
   xmlns:sodipodi="http://sodipodi.sourceforge.net/DTD/sodipodi-0.dtd"
   xmlns="http://www.w3.org/2000/svg"
   xmlns:svg="http://www.w3.org/2000/svg"><sodipodi:namedview
     id="namedview5"
     pagecolor="#ffffff"
     bordercolor="#000000"
     borderopacity="0.25"
     inkscape:showpageshadow="2"
     inkscape:pageopacity="0.0"
     inkscape:pagecheckerboard="0"
     inkscape:deskcolor="#d1d1d1"
     inkscape:zoom="1.3146211"
     inkscape:cx="158.98117"
     inkscape:cy="79.870925"
     inkscape:window-width="2512"
     inkscape:window-height="1387"
     inkscape:window-x="55"
     inkscape:window-y="25"
     inkscape:window-maximized="0"
     inkscape:current-layer="group-R5"
     inkscape:export-bgcolor="#ffffffff"><inkscape:page
       x="0"
       y="0"
       width="142"
       height="80"
       id="page3"
       margin="0"
       bleed="0"
       inkscape:export-filename="kdv_logo.png"
       inkscape:export-xdpi="96"
       inkscape:export-ydpi="96" /></sodipodi:namedview><defs
     id="defs5"><clipPath
       id="clip0"><rect
         width="141.34399"
         height="80"
         fill="#ffffff"
         id="rect5"
         x="0"
         y="0" /></clipPath><clipPath
       clipPathUnits="userSpaceOnUse"
       id="clipPath2"><rect
         style="fill:#ffffff;stroke:none;stroke-width:16.252"
         id="rect3"
         width="141.99969"
         height="80"
         x="0"
         y="0" /></clipPath></defs><g
     id="g1"
     inkscape:groupmode="layer"
     inkscape:label="1"
     transform="translate(152)"><g
       id="group-R5"
       transform="matrix(0.57604613,0,0,0.57604613,-145.19804,24.846529)"><rect
         style="fill:#ffffff;stroke:none;stroke-width:16.252"
         id="rect4"
         width="142"
         height="80"
         x="0"
         y="0"
         transform="matrix(1.7359721,0,0,1.7359721,-11.808013,-43.132881)" /><path
         id="path6"
         d="m 428.992,1716.89 v 0 l -174.273,183.41 0.726,-183.13 -128.593,-0.2 -0.602,392.16 127.406,0.19 0.184,-171.03 103.797,171.88 141.968,-0.43 -109.898,-180.18 214.703,-212.51 -175.418,-0.16 v 0"
         style="fill:#c4161d;fill-opacity:1;fill-rule:nonzero;stroke:none"
         transform="matrix(0.13333333,0,0,-0.13333333,0,281.49333)" /><path
         id="path7"
         d="m 758.863,2007.2 -100.75,0.36 -0.308,-185.79 h 108.371 c 91.746,0.23 133.929,17.16 131.683,96.02 -2.437,70.29 -57.839,90.72 -138.996,89.41 z m 57.692,-289.78 v 0 l -164.617,-0.86 -119.172,120.76 -0.321,272.42 283.575,0.35 c 117.117,0.27 212.26,-87.92 212.41,-196.28 0.16,-108.29 -94.692,-196.21 -211.875,-196.39 v 0"
         style="fill:#c4161d;fill-opacity:1;fill-rule:nonzero;stroke:none"
         transform="matrix(0.13333333,0,0,-0.13333333,0,281.49333)" /><path
         id="path8"
         d="m 1330.38,1718.11 v 0 l -127.09,-0.18 -216.325,392.43 135.305,0.26 143.92,-278.04 145.73,278.38 133.52,0.29 -215.06,-393.14 v 0"
         style="fill:#c4161d;fill-opacity:1;fill-rule:nonzero;stroke:none"
         transform="matrix(0.13333333,0,0,-0.13333333,0,281.49333)" /></g></g></svg>
