<?xml version="1.0" encoding="UTF-8" standalone="no"?>
<!-- Created with Inkscape (http://www.inkscape.org/) -->

<svg
   width="154mm"
   height="20mm"
   viewBox="0 0 154 20"
   version="1.1"
   id="svg1"
   sodipodi:docname="main-dark.svg"
   inkscape:version="1.4 (e7c3feb1, 2024-10-09)"
   xmlns:inkscape="http://www.inkscape.org/namespaces/inkscape"
   xmlns:sodipodi="http://sodipodi.sourceforge.net/DTD/sodipodi-0.dtd"
   xmlns="http://www.w3.org/2000/svg"
   xmlns:svg="http://www.w3.org/2000/svg">
  <sodipodi:namedview
     id="namedview1"
     pagecolor="#ffffff"
     bordercolor="#000000"
     borderopacity="0.25"
     inkscape:showpageshadow="2"
     inkscape:pageopacity="0.0"
     inkscape:pagecheckerboard="0"
     inkscape:deskcolor="#d1d1d1"
     inkscape:document-units="mm"
     inkscape:zoom="0.68328423"
     inkscape:cx="396.61387"
     inkscape:cy="560.52808"
     inkscape:window-width="2512"
     inkscape:window-height="1387"
     inkscape:window-x="55"
     inkscape:window-y="25"
     inkscape:window-maximized="1"
     inkscape:current-layer="layer1" />
  <defs
     id="defs1" />
  <g
     inkscape:label="Слой 1"
     inkscape:groupmode="layer"
     id="layer1">
    <path
       id="path2"
       style="fill:#b3b3b3;stroke:none;stroke-width:1.10412"
       d="M 46.47183,0.00968214 C 42.032739,0.20281142 37.212165,3.2758905 36.23116,7.2154456 36.781058,5.4750455 39.113347,3.7366287 40.490958,3.661532 l -0.585507,6.1217099 c -0.843299,0 -2.301835,0.2657581 -3.003014,-0.2994832 C 36.317421,9.0121571 36.100522,8.4491415 36.121377,7.8633745 36.04824,8.3962126 36.020134,8.9369171 36.099646,9.4917356 32.611393,9.0431829 29.579768,8.6254027 26.146011,9.7832419 26.528667,6.1760468 24.680578,6.9828509 22.952021,4.7843018 21.669763,3.1533957 21.176584,0.58494934 18.826592,0.22603673 14.975555,-0.36214321 7.9464822,0.14384469 8.8735284,5.1190857 6.7856972,5.4967173 6.2568823,6.6217568 6.2387429,8.6172055 L 1.8474336,8.9087118 V 9.061869 9.2002182 c 2.2280057,0 3.9030389,-0.3427607 5.8550794,0.8745298 v 0.291517 c -3.0408164,1.846204 -2.4617998,7.668948 1.7565236,6.996241 0.6669614,3.282129 3.3472794,2.642474 5.8550794,2.476129 3.65939,-0.242742 6.101093,0.497526 8.668262,-2.767647 1.567944,-1.994259 0.68426,-4.526864 1.878885,-6.320976 0.676287,-1.0156667 2.983123,-1.0663371 4.09055,-1.2195603 3.234584,-0.44755 6.312397,0.2008857 7.633903,3.4594043 0.568995,1.403004 0.284685,2.781231 1.311674,4.053808 1.651797,2.046803 4.361187,2.675571 6.863136,2.64978 3.22937,-0.03328 7.362207,-1.848452 8.213693,-5.246045 0.360679,-1.439187 -0.92097,-3.379118 0.396248,-4.4882265 0.99508,-0.837863 2.562971,-0.186739 3.685725,-0.01256 2.494282,0.3869525 4.833817,-0.4692989 7.318849,-0.1634035 0.08027,1.744797 0.706829,3.218193 1.682763,4.664157 1.43979,2.133236 4.10041,5.535777 7.099852,4.832693 1.438558,-0.337196 2.538468,-1.571289 3.805809,-2.268886 1.16507,-0.641297 2.457551,-1.123145 3.416408,-2.07644 1.430591,-1.422297 1.923036,-4.147503 3.857271,-5.0091863 2.786162,-1.2412101 6.582013,0.5876183 9.706058,-0.7253614 0.289397,1.5899317 1.140496,2.1658597 2.157331,3.3159317 3.361327,3.801701 4.407447,3.372331 8.967297,2.079855 1.23459,-0.349945 2.36443,-0.133127 3.51305,-0.855171 1.59704,-1.003933 2.71009,-2.77666 4.39131,-3.613697 1.93163,-0.9617125 4.34004,-0.4275965 6.44059,-1.3937827 3.32945,-1.5314493 9.03851,-0.9780633 10.53915,2.7989477 -2.24752,-0.345328 -3.48305,-2.5659124 -5.85508,-2.8610104 -1.37514,-0.1710718 -6.77264,1.106728 -3.71261,3.1445504 0.95662,0.637066 2.62115,0.245938 3.71261,0.325672 1.9939,0.145665 3.8376,1.088307 5.85508,1.124478 3.23272,0.05795 5.0327,-2.676133 7.90435,-3.5004004 2.48525,-0.713341 3.89998,-0.084505 6.866,-0.1389222 l 6.3045,-0.2328701 V 10.363379 L 153.01368,9.7963089 154,9.228655 153.01368,8.661574 152.02678,8.0945039 V 9.228655 l -5.8e-4,-0.1645383 -6.29248,-0.321122 c -8.77324,-0.7972738 -8.74112,2.4373463 -13.02527,3.7224513 -2.50265,0.750702 -4.87132,-0.535339 -7.31886,-0.848914 -1.01297,-0.129788 -2.53612,0.347808 -3.43357,-0.162268 -1.65373,-0.939943 0.66513,-2.4023991 1.67705,-2.4408288 2.59713,-0.098609 3.75946,1.8481638 5.8545,2.7966778 0.87771,0.397387 2.06026,-0.03118 1.78913,-1.156925 -0.89408,-3.7122594 -7.8488,-3.6041758 -10.57116,-2.7255141 -1.11943,0.3613255 -2.04993,1.1710494 -3.2203,1.3971987 -1.85417,0.3582956 -3.27362,-0.4013528 -4.97682,0.8722604 -2.1299,1.592686 -3.34359,3.540186 -6.14783,3.958726 0.51135,-1.53005 1.24195,-3.00499 1.1167,-4.6641564 -0.34284,-4.5416063 -4.50757,-8.2144119 -9.021052,-5.9588792 -2.403323,1.2010174 -2.56323,4.4831794 -4.700081,5.4623996 -2.890447,1.324559 -7.084196,-1.1011091 -9.582542,0.7128342 -1.48899,1.0810898 -2.042968,3.3710858 -3.336931,4.7119848 -1.317808,1.365611 -5.941476,4.581732 -7.85004,4.272443 -2.300211,-0.372762 -4.036013,-2.793185 -5.29187,-4.536626 -0.899016,-1.248052 -1.505749,-2.56328 -1.734225,-4.081144 l 1.463769,0.291517 c 0.06138,7.283726 7.614788,6.652124 12.00291,3.646155 1.802375,-1.234688 3.688688,-2.359463 3.481026,-4.8122018 -0.478196,-5.6483013 -10.0909,-10.3645383 -14.871553,-7.0315406 -2.09837,1.4629523 -2.612572,4.6633188 -2.66166,7.0315405 H 54.250394 C 54.248734,6.7741535 53.463404,2.7569568 51.290836,1.2542637 49.920864,0.30669731 48.227164,-0.06671458 46.47183,0.00964909 Z M 1.8474369,9.061869 A 0.92384784,0.91992227 0 0 0 0.92343246,8.1423647 0.92384784,0.91992227 0 0 0 1.3107665e-8,9.061869 0.92384784,0.91992227 0 0 0 0.92343246,9.9819461 0.92384784,0.91992227 0 0 0 1.8474369,9.061869 Z M 45.602146,0.65306077 c 0.616759,-0.003306 1.259264,0.0418673 1.914907,0.0933199 -1.469202,3.54868013 -3.079241,3.60366943 -6.440587,2.33207253 1.055793,-1.9789222 2.6754,-2.4169088 4.52568,-2.42544752 z m -27.21411,0.15599962 c 0.97584,-0.0236881 1.804871,0.53626451 2.488408,1.39491801 L 17.363397,1.0379421 c 0.358047,-0.14815503 0.699358,-0.220971 1.024639,-0.22888171 z M 15.314119,1.0379421 15.021365,3.0785083 C 13.570861,2.7293134 12.638052,2.6625791 11.801072,1.3294484 Z m 1.849153,0.2841135 c 2.206104,-0.018621 5.195653,2.6456914 2.236252,3.7270015 -1.470243,0.53719 -5.241284,-2.5366933 -3.113942,-3.5425322 0.263541,-0.1246102 0.562532,-0.1818141 0.87769,-0.1844693 z m 33.281321,0.00771 1.171016,1.1660363 -1.463771,-0.87453 z M 10.337302,1.6212742 10.044548,4.8278878 C 8.7691117,3.9305953 9.0454763,2.3305828 10.337302,1.6212742 Z m 38.741869,0.097947 c 1.744202,0.1466125 3.4829,2.2546953 1.950929,4.5662309 H 50.737347 L 49.003695,5.2987623 c 0.591627,0.3548581 1.082875,0.8449695 1.440898,1.5697138 L 48.688069,7.4514888 46.931546,4.5363925 c 0.763013,0.1805471 1.456835,0.3985874 2.050992,0.7504156 L 46.638791,3.9533688 c 0.345528,-1.7039094 1.393856,-2.3221235 2.44038,-2.2341476 z m 22.505463,0.1702349 c 1.087684,0.063902 2.201946,0.2981941 3.158534,0.4395401 1.616289,0.2388528 3.120759,0.5786607 4.37988,1.6870083 0.986308,0.8682058 1.846734,2.0117329 2.505561,3.1439779 4.530657,7.7862416 -15.320398,13.0949556 -13.618779,2.9150966 1.485501,2.198461 2.522471,4.581809 5.562327,4.855468 3.062735,0.275718 7.96603,-3.749985 6.919164,-6.8960345 -0.854473,-2.5678845 -2.648915,-4.0572903 -4.637178,-4.6214627 2.843443,0.99156 4.816936,4.7508435 4.158596,7.5365592 H 79.71999 C 79.715563,3.8436876 69.445838,1.930475 68.302584,9.492066 67.190502,6.7707712 70.973636,3.9445217 73.279406,3.3100013 73.689641,3.197114 74.090671,3.1630471 74.484718,3.1687985 71.05189,2.9333832 67.53027,5.2962723 67.424322,9.7835723 64.056798,9.2239724 67.106616,2.9728817 69.18199,2.1735695 c 0.41538,-0.159988 0.864157,-0.2462235 1.330543,-0.2812598 0.349789,-0.026333 0.709535,-0.024129 1.072101,-0.00331 z m 2.900084,1.2793424 c 0.462262,0.031731 0.919002,0.116446 1.369425,0.2442513 C 75.415892,3.2602232 74.95809,3.1757065 74.484718,3.1687985 Z M 11.801072,1.9128025 12.093826,3.3703562 10.92281,4.5363925 C 10.148143,3.385825 10.468607,2.331938 11.801072,1.9128025 Z m 9.368126,1.74906 h 0.585508 l 0.585508,3.2066136 -2.342032,-1.1660473 z m 19.614515,0 2.049277,0.5830237 -1.756524,1.1660363 z m 60.590337,0.00551 c 3.29476,0.1392969 6.4122,3.0901124 5.37249,7.5741415 -0.83883,3.617761 -3.16886,1.789451 -5.65552,1.103401 -0.97316,-0.268491 -2.554152,-0.04374 -3.212283,-0.961637 -0.763077,-1.064244 -0.06263,-2.8403086 0.284739,-3.9314024 1.861984,0.545332 2.383554,3.3340984 4.392464,3.3882404 3.69773,0.0996 2.76719,-5.2744708 -0.002,-6.1120364 -2.45524,-0.7425166 -5.022944,2.2121443 -7.024971,3.3068189 0.996533,-2.8622003 3.072528,-4.2029002 5.184951,-4.3572801 0.22004,-0.016086 0.44076,-0.019501 0.66042,-0.00991 z m -87.129741,0.033052 c 1.695554,-0.072717 3.231859,0.8549957 3.704596,3.1684594 C 16.714982,6.5298472 16.36278,5.3636126 15.275238,4.9871709 13.668708,4.4310744 12.381183,6.8798795 11.215564,4.8283176 12.152435,4.1477322 13.226977,3.7440216 14.244309,3.7004245 Z m 29.466943,0.8363868 h 2.634786 v 0.87453 L 44.29676,5.7028476 Z m 9.075372,0 c 0.819819,2.1197946 1.888454,5.9231267 -1.756524,5.2471799 z m -9.368126,0.2915063 0.292754,0.87453 -1.756524,0.87453 c -0.0183,-1.0903999 0.453163,-1.395469 1.46377,-1.74906 z m 58.591392,0.1320913 c 3.51376,-0.024349 2.48056,7.1858651 -0.53063,4.9391579 -1.09068,-0.8137894 -1.62639,-2.182331 -2.730272,-3.0306829 0.427895,-0.5717635 0.807337,-1.076165 1.468922,-1.4068723 0.69506,-0.3474541 1.29,-0.4981212 1.79198,-0.5016027 z M 73.334287,5.152282 c 2.450215,-0.040986 5.155991,1.1219103 5.684697,3.4656618 1.086156,4.8149222 -7.476274,8.1815242 -7.777425,2.0405772 -0.04503,-0.9183033 0.02145,-1.7481455 0.281323,-2.6235899 1.048747,0.7349247 1.987434,1.9857639 3.220286,2.4015389 1.42612,0.480967 3.092987,-0.9109542 2.61478,-2.400977 C 75.891841,3.4673781 71.043302,6.6301522 69.180845,8.909461 68.689273,6.4379705 70.884083,5.1932237 73.334287,5.152282 Z M 14.931594,5.3771532 c 0.31516,0.053766 0.611679,0.2647884 0.968033,0.6171785 L 13.850349,5.7028145 C 14.282637,5.4266999 14.616437,5.3233318 14.931594,5.3771532 Z M 8.768896,5.6783331 c 0.1678672,-0.01851 0.3445232,-0.017739 0.5289012,0.00331 C 9.7894711,5.7366197 10.336702,5.9332962 10.92281,6.2863034 9.9518293,8.4028808 9.0601503,8.6181225 6.8242544,8.618376 6.8449234,6.8760037 7.5938198,5.808058 8.768896,5.6787983 Z m 9.472763,0.02446 h 0.585508 V 6.2858164 Z M 44.29676,5.9943104 c 1.653215,0.00551 2.50105,0.173628 3.220293,1.7490599 C 45.86111,7.743183 44.451357,7.9700705 44.29676,5.9943104 Z m 29.919229,0.00991 c 3.054006,-0.240467 3.285114,6.0557306 -0.350508,3.3973463 -0.71271,-0.5211483 -1.324302,-1.1496089 -2.049848,-1.6579657 0.25669,-0.5083126 0.415558,-0.8715 0.921712,-1.1910905 0.548478,-0.3463194 1.042351,-0.5139316 1.478644,-0.5482848 z m -59.194624,0.281838 v 0.2915064 h -1.463769 z m 4.098555,0 c 1.48845,-0.032612 2.675248,0.5005452 2.927539,2.0405663 z m 24.005824,0 h 0.585508 V 7.4520947 L 42.83299,7.1605774 V 6.5775648 Z m -19.07818,0.1354957 c 0.454071,-0.052334 1.046678,0.2407588 1.295665,0.540319 0.678361,0.8161803 0.43657,1.8939428 0.217278,2.8222942 H 24.975 c -0.474339,-0.6951177 -1.668211,-1.912794 -1.491216,-2.8222942 0.06872,-0.3531502 0.291338,-0.5089296 0.56378,-0.540319 z M 40.783713,6.5775648 41.661975,6.8690711 41.36922,9.492661 h -1.171015 z m 7.026095,0 0.585507,1.1660362 H 48.102561 Z M 13.557596,7.1605774 c 1.699039,0.093761 2.029794,0.7043616 2.049277,2.3320836 z m 3.220292,0 1.463771,1.74906 h -0.292754 l -1.46377,-1.4575427 z m 33.959459,0 c 0.55908,2.0438936 -1.040694,2.8669376 -2.049278,0.87453 z M 11.777628,7.3279693 c 0.646603,0.088472 1.269275,0.8206535 1.487213,1.8731854 L 10.337302,8.6181311 c 0.291666,-0.8236613 0.720226,-1.2178967 1.163012,-1.2878811 0.09224,-0.014544 0.184942,-0.014873 0.277314,-0.0022 z m 85.800348,0.1241254 -0.585511,4.0811333 c -1.862336,-1.47017 -1.414513,-3.0356416 0.585511,-4.0811333 z m -77.83138,0.1730771 c 0.867035,0.083183 1.566686,0.7305947 2.00811,1.5759829 L 18.827167,7.743601 c 0.322856,-0.1111795 0.630419,-0.1461607 0.919429,-0.1184292 z m 22.865114,0.075691 c 0.217563,-0.026993 0.483149,-0.011458 0.806788,0.042748 l -1.756523,1.4575537 c 0.07481,-0.9554991 0.297043,-1.4193883 0.949735,-1.5002473 z m -26.126575,0.042748 0.878262,2.3320832 C 16.370911,9.5308043 16.050674,8.8163175 16.485135,7.7436108 Z m 54.452234,0.2915186 0.585513,5.8301926 C 69.279915,12.277683 67.838866,9.5338011 70.937369,8.0351294 Z M 45.274512,8.2207336 c 0.800933,-0.037901 1.666292,0.1053298 2.535296,0.1058796 V 8.6181306 L 43.125744,9.2011433 C 43.737076,8.4774791 44.473579,8.2585794 45.274512,8.2207115 Z M 23.218476,8.3266132 24.389491,9.7841669 C 23.446772,9.6282008 22.889306,9.325853 23.218476,8.3266132 Z M 19.11992,8.6181306 21.754706,9.7841669 C 20.537071,11.936927 19.182427,10.534671 19.11992,8.6181306 Z m 29.275395,0 0.292754,1.1660363 c -2.300725,0.4083711 -4.824503,2.9121991 -6.440587,0 z M 7.7025163,8.9096374 9.7517936,9.2011437 C 9.2156671,10.077448 7.4876982,10.160036 7.7025163,8.9096374 Z m 6.4405867,0 3.220294,3.4981196 -1.46377,0.291507 z m -3.805801,0.2915063 2.342032,0.5830236 C 11.706442,10.293549 10.948243,10.107471 10.337302,9.2011437 Z m 8.19711,0.2915173 v 2.915096 l -1.756524,-1.74906 z m 4.098556,0.583013 0.585508,1.74906 h -1.46377 z m 17.272483,0 -2.049278,2.332083 -0.878262,-2.040566 z m 9.66088,0 c -0.815625,1.404603 -2.299795,1.444971 -3.805802,1.457554 z m 3.220293,0 h 0.585509 l -0.292753,0.87453 h -0.292756 z m -39.219308,0.270451 c 0.543172,-0.04407 1.146617,0.260877 1.529525,1.185394 0.194648,0.469972 0.189974,0.962672 0.217278,1.459263 -0.497474,-0.0227 -0.983674,-0.03162 -1.470058,-0.155438 -2.375769,-0.604531 -1.471725,-2.392219 -0.276745,-2.489219 z m 9.943914,0.02104 h 1.171015 l -0.292754,0.87453 h -0.585508 z m 17.272483,0 3.220293,1.457543 c -1.364284,1.324646 -2.577326,-0.08947 -3.220293,-1.457543 z m 9.66088,0 h 1.171016 l -0.292754,1.166036 H 50.737347 Z M 8.5195969,10.847111 c 0.1634835,-0.01487 0.3295106,-0.01267 0.4963101,0.0077 0.8006328,0.09652 1.614464,0.60031 2.199657,1.553199 l -4.9768178,1.166048 c 0.1265781,-1.670812 1.1364702,-2.622532 2.2808507,-2.72665 z m 10.8930761,0.103015 0.585509,0.874531 -0.878262,0.291506 z m 20.479054,0.268734 c 1.830882,-0.251512 2.773734,2.488578 2.64851,3.81241 -0.61417,-0.092 -1.183959,-0.193768 -1.75824,-0.446944 -1.077531,-0.47505 -3.485374,-3.008955 -0.89027,-3.365466 z M 24.975,11.24166 c 0,2.642618 -0.229457,5.424454 -2.927541,6.704734 l -1.171015,-2.040567 c 1.888112,-0.102906 2.424047,-0.886 2.765153,-1.859523 -0.310497,0.724513 -1.084479,1.311183 -1.849153,1.166608 -1.109572,-0.209798 -1.711115,-1.897599 -2.087015,-2.805205 0.898591,-0.206207 3.111314,-0.655321 3.796652,0.186177 0.294117,0.361128 0.32844,0.796338 0.21785,1.209876 0.266,-0.840276 0.459004,-1.77753 1.255069,-2.5621 z m 24.183077,0.191873 c 0.587884,6.62e-4 1.018479,0.139782 1.140711,0.487941 1.010193,2.877349 -5.526344,1.695735 -6.587536,1.360763 0.505402,-0.604199 3.683171,-1.850676 5.446825,-1.848704 z m 49.00541,0.974174 c 2.243803,0.09618 4.917713,0.673733 6.733343,2.040566 -2.59408,1.446922 -5.684717,1.028502 -6.733343,-2.040566 z M 10.260683,12.98731 c 1.436851,-0.05961 2.94816,0.173287 4.175175,0.294933 -1.912267,2.501162 -5.492862,3.132354 -7.9043571,1.166036 0.9299373,-1.049314 2.2923303,-1.401374 3.7291821,-1.460969 z m 8.566484,0.0033 1.756523,2.915097 C 19.013358,15.654413 17.916006,14.562559 18.827167,12.99063 Z m -0.878262,0.291517 v 2.040567 L 14.728611,15.6142 c 0.611804,-1.490728 1.701934,-1.972543 3.220294,-2.332073 z m 25.469593,0.291507 4.098555,0.87453 v 0.161695 L 51.0301,13.573634 c -0.0368,4.048817 -5.923013,6.460482 -7.904356,2.332084 l 3.631978,-1.071538 -3.924732,0.488514 z m 3.339224,1.260546 0.759331,-0.09453 V 14.609854 Z M 6.8242544,15.031196 9.45904,17.071773 C 8.2107176,17.00367 6.5084365,16.579004 6.8242544,15.031182 Z M 12.386579,15.3227 v 0.291506 l -1.756523,0.583023 z m 0.878262,1.166036 1.46377,2.915096 c -3.78825,0.897668 -6.3002958,-2.667925 -1.46377,-2.915096 z" />
  </g>
</svg>
